# xmcd
#
# Track frame offsets:
#	150
#	22222
#	41375
#	57045
#	85077
#	107825
#	142200
#	156672
#	175417
#	212415
#	238067
#	259777
#	280390
#	314542
#
# Disc length: 4478 seconds
#
# Revision: 3
# Processed by: cddbd v1.5.1PL2 Copyright (c) Steve Scherf et al.
# Submitted via: audiograbber 1.83.01
#
DISCID=d1117c0e
DTITLE=Incognito - Adventures In Black Sunshine
DYEAR=2004
DGENRE=Jazz
TTITLE0=Don't Turn My Love Away
TTITLE1=Everything Your Heart Desires
TTITLE2=Close My Eyes
TTITLE3=The 25th Chapter
TTITLE4=True to Myself
TTITLE5=The Principles Of Love
TTITLE6=This Thing Called Love
TTITLE7=Fences And Barriers
TTITLE8=Mindin' My Business
TTITLE9=Autumn Song
TTITLE10=Listen To The Music
TTITLE11=Mr Jones
TTITLE12=The World Is Mine
TTITLE13=Beyond The Clouds
EXTD=YEAR: 2004
EXTT0=
EXTT1=
EXTT2=
EXTT3=
EXTT4=
EXTT5=
EXTT6=
EXTT7=
EXTT8=
EXTT9=
EXTT10=
EXTT11=
EXTT12=
EXTT13=
PLAYORDER=
